<?xml version="1.0" encoding="UTF-8"?><svg id="Calque_2" xmlns="http://www.w3.org/2000/svg" 
viewBox="0 0 277.31 123.91"><g id="Calque_1-2">
<path d="m158.07,62.67h-38.83c-3.31,0-6.38-1.65-8.21-4.41-1.83-2.77-2.14-6.25-.84-9.31,3.69-8.64,11.64-18.95,28.59-18.95,13.28,0,23.35,6.77,28.38,19.07,1.25,3.06.9,6.52-.94,9.25-1.83,2.72-4.88,4.35-8.16,4.35Zm-19.28-27.34c-14.04,0-20.64,8.54-23.69,15.71-.61,1.43-.47,2.99.38,4.28.85,1.29,2.22,2.02,3.76,2.02h38.83c1.53,0,2.89-.73,3.74-1.99.86-1.28,1.02-2.84.43-4.27-2.94-7.19-9.39-15.76-23.45-15.76Z" fill="#eb601d"/><path d="m156.95,62.67h-36.59c-7.19,0-13.04-5.85-13.04-13.04V13.04c0-7.19,5.85-13.04,13.04-13.04h36.59c7.19,0,13.04,5.85,13.04,13.04v36.59c0,7.19-5.85,13.04-13.04,13.04ZM120.36,5.33c-4.25,0-7.71,3.46-7.71,7.71v36.59c0,4.25,3.46,7.71,7.71,7.71h36.59c4.25,0,7.71-3.46,7.71-7.71V13.04c0-4.25-3.46-7.71-7.71-7.71h-36.59Z" fill="#eb601d"/><polygon points="17.33 87.75 24.52 78.73 19.07 78.74 12.93 87.75 17.33 87.75" fill="#eb601d"/><path d="m16.31,123.91h.01c6.76,0,12.23-3.3,14.71-8.83h-5.94c-1.85,2.65-4.72,3.94-8.78,3.95h-.01c-5.71,0-9.79-3.37-10.66-8.8l-.06-.35,26.91-.02v-1.88c0-9.37-6.66-15.92-16.18-15.92h-.02c-4.61,0-8.78,1.61-11.74,4.53C1.61,99.46,0,103.52,0,107.99c0,9.23,6.86,15.92,16.31,15.92Zm-10.48-19.12c1.19-4.92,5.11-7.85,10.47-7.86h.01c5.33,0,9.36,3,10.53,7.84l.09.38H5.74s.09-.36.09-.36Z" fill="#eb601d"/><path d="m52.9,96.9c6.01,0,9.61,3.89,9.61,10.42v15.75s5.34,0,5.34,0v-15.75c-.02-9.72-5.46-15.3-14.94-15.3h-.02c-4.51,0-8.25,1.34-10.82,3.86-2.72,2.67-4.1,6.52-4.1,11.45v15.75s5.34,0,5.34,0v-15.75c-.02-6.53,3.57-10.42,9.59-10.43h0Z" fill="#eb601d"/><path d="m78.69,120.04c2.57,2.49,6.31,3.81,10.81,3.81h.02c9.35,0,14.93-5.71,14.92-15.26v-15.81s-5.34,0-5.34,0v15.81c.02,6.58-3.48,10.36-9.59,10.37h0c-6.1,0-9.61-3.77-9.61-10.35v-15.81s-5.34,0-5.34,0v15.81c.01,4.93,1.4,8.77,4.13,11.42Z" fill="#eb601d"/><path d="m144.78,96.83c2.29,0,4.2.72,5.51,2.09,1.43,1.49,2.16,3.68,2.16,6.52v17.56s5.34,0,5.34,0v-17.56c-.02-4.42-1.22-7.86-3.59-10.22-2.15-2.14-5.21-3.27-8.86-3.27h-.01c-4.79,0-8.55,2.13-10.59,5.97l-.27.51-.27-.51c-2.01-3.78-5.87-5.95-10.58-5.95h-.02c-3.65,0-6.72,1.14-8.87,3.28-2.36,2.36-3.56,5.8-3.56,10.22v17.55s5.34,0,5.34,0v-17.55c-.01-2.84.71-5.03,2.14-6.52,1.31-1.37,3.22-2.09,5.52-2.1h0c2.24,0,4.13.74,5.47,2.14,1.44,1.5,2.21,3.73,2.21,6.47v17.56s5.34,0,5.34,0v-17.56c-.01-2.74.73-4.98,2.15-6.47,1.33-1.4,3.21-2.14,5.44-2.14h.01Z" fill="#eb601d"/><path d="m165.53,86.17c.7.7,1.66,1.08,2.7,1.08h0c2.18,0,3.81-1.67,3.81-3.88,0-2.21-1.61-3.82-3.82-3.82-1.07,0-2.04.39-2.73,1.08-.7.7-1.08,1.67-1.08,2.74s.39,2.08,1.11,2.79Z" fill="#eb601d"/><rect x="165.63" y="92.74" width="5.32" height="30.24" fill="#eb601d"/><path d="m193.8,123.77h.01c6.77,0,12.23-3.3,14.71-8.83h-5.94c-1.85,2.65-4.72,3.94-8.78,3.95h-.01c-5.71,0-9.8-3.37-10.66-8.8l-.06-.35,26.91-.02v-1.88c0-9.37-6.66-15.92-16.18-15.92h-.02c-4.61,0-8.78,1.61-11.74,4.53-2.94,2.9-4.55,6.95-4.55,11.42,0,9.23,6.86,15.92,16.31,15.92Zm-10.48-19.12c1.19-4.92,5.11-7.86,10.47-7.86h.01c5.33,0,9.36,3,10.53,7.84l.09.38h-21.2s.09-.36.09-.36Z" fill="#eb601d"/><polygon points="197.02 87.61 190.87 78.6 185.42 78.61 192.62 87.61 197.02 87.61" fill="#eb601d"/><path d="m228.46,96.76c3.5,0,7.67,1.44,7.68,8.29v.07h5.26c0-4.36-1.21-7.73-3.58-10.01-2.21-2.12-5.44-3.24-9.35-3.24h-.01c-8.26,0-12.99,4.82-12.99,13.2v17.87s5.34,0,5.34,0v-17.87c-.02-5.43,2.63-8.3,7.65-8.3h0Z" fill="#eb601d"/><path d="m277.31,107.77c0-9.37-6.66-15.92-16.18-15.92h-.02c-4.61,0-8.78,1.61-11.74,4.53-2.94,2.9-4.55,6.95-4.55,11.42,0,4.47,1.63,8.52,4.57,11.41,2.96,2.91,7.13,4.51,11.74,4.51h.01c6.76,0,12.23-3.3,14.7-8.83h-5.93c-1.85,2.65-4.72,3.94-8.78,3.95h-.01c-5.71,0-9.8-3.37-10.66-8.8l-.06-.35,26.91-.02v-1.88Zm-26.75-2.8l.09-.38c1.19-4.92,5.11-7.86,10.47-7.86h.01c5.33,0,9.36,3,10.53,7.84l.09.38h-21.2Z" fill="#eb601d"/></g></svg>